<?xml version="1.0" encoding="UTF-8"?>
<!DOCTYPE svg PUBLIC "-//W3C//DTD SVG 1.1//EN" "http://www.w3.org/Graphics/SVG/1.1/DTD/svg11.dtd">
<!-- Creator: CorelDRAW X5 -->
<svg xmlns="http://www.w3.org/2000/svg" xml:space="preserve" width="480px" height="360px" shape-rendering="geometricPrecision" text-rendering="geometricPrecision" image-rendering="optimizeQuality" fill-rule="evenodd" clip-rule="evenodd"
viewBox="0 0 480 360"
 xmlns:xlink="http://www.w3.org/1999/xlink">
 <g id="Layer_x0020_1">
  <metadata id="CorelCorpID_0Corel-Layer"/>
  <path id="path3753" fill="green" d="M321 219c0,17 -36,30 -81,30 -45,0 -81,-14 -81,-30 0,-17 36,-30 81,-30 45,0 81,14 81,30z" rx="237.14285" ry="84.285713" type="arc" cy="479.50504" cx="362.85715"/>
  <path id="path3755" fill="#62D400" d="M315 219c0,14 -34,25 -76,25 -42,0 -76,-11 -76,-25 0,-14 34,-25 76,-25 42,0 76,11 76,25z" rx="167.14285" ry="35.714287" type="arc" cy="722.36218" cx="318.57144"/>
  <path id="path3753-7-9" fill="green" d="M243 111c-16,0 -33,7 -45,18 -16,14 -25,34 -32,54 -3,11 -6,22 -7,34 0,6 6,11 11,14 13,7 27,10 41,12 25,3 50,3 74,-3 11,-3 22,-6 30,-13 4,-3 6,-8 5,-12 -2,-14 -6,-28 -12,-41 -8,-18 -17,-36 -33,-49 -10,-8 -22,-13 -34,-13l0 0z" />
  <path id="path3755-4-0" fill="#83F100" d="M236 117c-15,0 -28,10 -37,21 -14,16 -23,36 -30,57 -2,8 -5,16 -5,24 1,5 6,9 10,11 13,7 27,9 41,11 27,3 55,1 81,-8 7,-3 15,-6 20,-13 3,-3 2,-7 1,-11 -4,-18 -12,-35 -21,-51 -10,-16 -23,-31 -41,-38 -6,-2 -13,-4 -19,-3l0 0z" />
  <path id="path3948-8" fill="white" fill-opacity="0.501961" d="M223 131c-3,1 -5,3 -8,5 -11,12 -22,23 -30,37 -6,11 -12,22 -13,34 0,5 1,10 3,14 2,2 5,1 8,2 6,0 11,1 17,1 3,0 5,-2 6,-5 2,-6 2,-13 -1,-19 -2,-4 -4,-10 -2,-15 2,-7 6,-13 10,-18 2,-3 6,-5 7,-8 3,-8 6,-16 6,-24 0,-1 0,-4 -2,-4l0 0z" />
  <path id="path3952-2" fill="white" fill-opacity="0.501961" d="M240 121c-2,0 -5,1 -7,2 0,4 0,9 4,11 1,0 2,1 2,-1 2,-3 4,-7 4,-11 0,-2 -2,-1 -4,-1z" />
  <path id="path3908" fill="black" d="M253 183c-3,1 -4,5 -5,7 -1,6 -1,13 3,18 1,2 4,2 5,1 4,-4 4,-11 4,-16 -1,-3 -2,-8 -5,-9 0,0 -1,0 -1,0l0 0z" />
  <path id="path3908-4" fill="black" d="M286 180c-3,1 -4,5 -5,7 -1,6 -1,13 3,18 1,2 4,2 5,1 4,-4 4,-11 4,-16 -1,-3 -2,-8 -5,-9 0,0 -1,0 -1,0l0 0z" />
  <path id="path3928" fill="white" d="M252 185c-2,0 -2,4 -3,7 0,3 1,7 2,8 2,1 3,-2 3,-5 0,-3 0,-8 -2,-10 0,0 0,0 -1,0l0 0z" />
  <path id="path3928-8" fill="white" d="M285 180c-2,0 -2,4 -3,7 0,3 1,7 2,8 2,1 3,-2 3,-5 0,-3 0,-8 -2,-10 0,0 0,0 -1,0l0 0z" />
 </g>
</svg>
