<?xml version="1.0" encoding="UTF-8"?>
<!DOCTYPE svg PUBLIC "-//W3C//DTD SVG 1.1//EN" "http://www.w3.org/Graphics/SVG/1.1/DTD/svg11.dtd">
<!-- Creator: CorelDRAW X5 -->
<svg xmlns="http://www.w3.org/2000/svg" xml:space="preserve" width="480px" height="360px" shape-rendering="geometricPrecision" text-rendering="geometricPrecision" image-rendering="optimizeQuality" fill-rule="evenodd" clip-rule="evenodd"
viewBox="0 0 480 360"
 xmlns:xlink="http://www.w3.org/1999/xlink">
 <g id="Bottom">
  <metadata id="CorelCorpID_0Corel-Layer"/>
  <rect fill="#84C341" x="-15" y="222" width="514" height="143"/>
  <rect fill="#A3D8F7" x="-11" y="-10" width="504" height="232"/>
  <path fill="white" d="M306 92c4,-2 9,-1 12,2 0,0 1,1 2,1 1,0 3,0 4,1 2,1 4,4 4,6 0,2 -1,3 -2,5 -1,1 2,14 1,15 2,0 -12,9 -11,9 -15,32 -40,-34 -37,-34 0,-1 10,-3 10,-4 0,0 8,4 9,4 1,-1 7,-4 8,-4z"/>
  <path fill="white" d="M138 60c5,-1 10,1 13,5 0,0 1,1 1,1 1,0 2,0 3,0 3,1 6,2 7,5 2,3 2,7 1,10 -2,4 -6,7 -10,6 -1,0 -2,0 -3,-1 -1,0 -2,1 -3,2 -5,3 -12,3 -16,-1 0,0 -1,-1 -2,-1 -2,1 -4,1 -6,0 -3,-1 -6,-3 -7,-7 -1,-2 -1,-5 0,-7 1,-3 4,-6 8,-7 1,0 2,0 4,0 0,0 1,-1 1,-1 2,-3 6,-4 9,-5z"/>
 </g>
 <g id="Layer_x0020_1">
  <metadata id="CorelCorpID_1Corel-Layer"/>
  <rect fill="#A74D4C" x="195" y="96" width="102" height="3"/>
  <rect fill="#74282C" x="192" y="87" width="110" height="9"/>
  <path fill="#41651B" d="M375 161c1,0 11,-1 12,-1 2,0 3,1 4,2 1,2 2,4 2,6 0,1 1,1 1,1 4,2 6,6 5,10 0,1 1,2 1,3 0,3 -1,5 -4,7 1,1 1,3 0,5 0,1 -1,2 -2,3 0,2 -1,3 -2,4 -1,1 -3,1 -5,1 -1,0 -6,-1 -7,-1 0,-14 -5,-26 -5,-40z"/>
  <path fill="#4F2924" d="M383 201c1,0 3,0 3,0 0,7 1,14 0,21 0,3 0,5 0,8 -1,0 -5,1 -6,1 0,-9 2,-20 2,-30z"/>
  <rect fill="#CDCDCD" stroke="#4A1117" stroke-width="1.00039" x="222" y="78" width="48" height="18"/>
  <rect fill="#F5867B" x="195" y="99" width="103" height="134"/>
  <rect fill="#CA5B50" x="215" y="190" width="65" height="44"/>
  <rect fill="#903439" x="225" y="201" width="45" height="31"/>
  <rect fill="#F5867B" x="307" y="121" width="78" height="114"/>
  <rect fill="#F5867B" x="107" y="121" width="80" height="113"/>
  <path fill="#74282C" d="M104 109c28,0 55,0 83,0 0,1 0,3 0,4 0,2 0,3 0,5 -26,0 -53,0 -79,0 0,1 0,2 0,3 0,-1 0,-2 0,-3 -1,0 -2,0 -3,0l0 0c0,-3 0,-6 0,-10z"/>
  <path fill="#74282C" d="M303 109c29,0 58,0 86,0 0,3 0,6 0,10 -2,0 -3,0 -5,0 -27,0 -55,0 -82,0 0,-3 0,-6 0,-10z"/>
  <polygon fill="#74282C" points="226,181 268,181 289,181 289,190 285,190 285,230 284,235 279,234 279,221 279,190 238,190 215,190 215,214 215,232 209,232 209,190 206,190 206,181 "/>
  <path fill="#CFA7AD" d="M104 118c1,0 2,0 3,0 0,1 0,2 0,3 0,11 0,23 0,34 0,1 0,1 1,1 -1,0 -1,0 -2,-1 0,0 1,0 1,0 0,-12 0,-23 0,-35 0,-1 0,-2 0,-3 -1,0 -2,0 -3,0z"/>
  <path fill="#A84E4D" d="M107 118c26,0 53,0 79,0 0,1 0,2 0,3 -27,0 -53,0 -80,0 0,-1 0,-2 0,-3z"/>
  <path fill="#A84E4D" d="M307 118c26,0 52,0 78,0 0,1 0,2 0,3 -26,0 -52,0 -78,0 0,-1 0,-2 0,-3z"/>
  <path fill="#BB5156" d="M226 119c14,0 29,0 43,0 0,21 0,41 0,62 0,0 -1,0 -1,0 0,-14 0,-28 0,-42 0,-6 0,-12 0,-18 -14,0 -27,0 -41,0 0,20 0,41 0,61 0,0 -1,0 -1,0 0,-1 0,-2 0,-2 0,-20 0,-40 0,-59z"/>
  <path fill="#BA5357" d="M231 124c4,0 9,0 13,0 0,8 0,16 0,25 -4,0 -9,0 -13,0 0,-8 0,-16 0,-25z"/>
  <path fill="#BA5357" d="M250 124c4,0 9,0 13,0 0,8 0,16 0,25 -4,0 -9,0 -13,0 0,-8 0,-16 0,-25z"/>
  <path fill="#BA5357" d="M115 136c6,0 12,0 18,0 0,8 0,16 0,25 -3,0 -7,0 -10,0 -1,-2 -2,-3 -4,-4 -1,0 -3,0 -4,0 0,-7 0,-14 0,-20z"/>
  <path fill="#BA5357" d="M137 136c6,0 12,0 18,0 0,8 0,16 0,25 -6,0 -12,0 -18,0 0,-8 0,-16 0,-25z"/>
  <path fill="#BA5357" d="M160 136c6,0 12,0 18,0 0,8 0,16 0,25 -6,0 -11,0 -17,0 0,0 -1,0 -1,0 0,-8 0,-16 0,-24z"/>
  <path fill="#BA5357" d="M201 136c6,0 12,0 18,0 0,8 0,16 0,25 -5,0 -11,0 -16,0 -1,0 -1,0 -2,0 0,-8 0,-16 0,-24z"/>
  <path fill="#BA5357" d="M274 136c6,0 12,0 18,0 0,8 0,16 0,25 -6,0 -12,0 -18,0 0,-8 0,-16 0,-25z"/>
  <path fill="#BA5357" d="M314 136c6,0 12,0 18,0 0,8 0,16 0,25 -6,0 -12,0 -18,0 0,-6 0,-12 0,-19 0,-2 0,-4 0,-6z"/>
  <path fill="#BA5357" d="M337 136c6,0 12,0 18,0 0,8 0,16 0,25 -6,0 -12,0 -18,0 0,-8 0,-16 0,-25z"/>
  <path fill="#BA5357" d="M359 136c6,0 12,0 18,0 0,8 0,16 0,25 -3,0 -6,0 -9,0 -3,0 -6,0 -9,0 0,-8 0,-16 0,-25z"/>
  <path fill="#BA5357" d="M250 152c4,0 9,0 13,0 0,8 0,16 0,25 -4,0 -9,0 -13,0 0,-8 0,-16 0,-25z"/>
  <path fill="#BA5357" d="M231 152c4,0 9,0 13,0 0,8 0,16 0,25 -4,0 -9,0 -13,0 0,-8 0,-16 0,-25z"/>
  <path fill="#BA5357" d="M120 192c4,0 8,0 12,0 0,8 0,16 0,25 -1,0 -3,0 -4,0 -5,0 -9,0 -14,0 0,-6 0,-12 0,-18 1,0 3,-1 4,-2 1,-1 2,-3 2,-5z"/>
  <path fill="#BA5357" d="M137 192c6,0 12,0 18,0 0,8 0,16 0,25 -6,0 -12,0 -18,0 0,-8 0,-16 0,-25z"/>
  <path fill="#BA5357" d="M160 192c0,0 0,-1 0,-1 6,0 12,0 17,0 0,8 0,16 0,25 -5,0 -10,0 -16,0 -1,0 -1,0 -2,0 0,-8 0,-16 0,-24z"/>
  <path fill="#BA5357" d="M314 192c6,0 12,0 18,0 0,8 0,16 0,25 -6,0 -12,0 -18,0 0,-8 0,-16 0,-25z"/>
  <path fill="#BA5357" d="M337 192c6,0 12,0 18,0 0,8 0,16 0,25 -6,0 -12,0 -18,0 0,-8 0,-16 0,-25z"/>
  <path fill="#BA5357" d="M359 192c4,0 7,0 11,0 2,0 5,0 7,0 0,8 0,16 0,25 -6,0 -11,0 -17,0 0,0 -1,0 -1,0 0,-8 0,-16 0,-24z"/>
  <path fill="#41651B" d="M98 158c2,-2 5,-2 8,-2 1,0 1,0 2,1 1,1 2,1 3,2 1,-1 2,-2 4,-2 1,0 3,0 4,0 2,1 3,2 4,4 0,1 0,2 0,4 3,0 5,3 5,6 0,2 -1,4 -2,5 1,1 1,1 2,2 2,3 2,7 0,10 -2,2 -4,3 -7,3 0,1 0,2 0,2 0,2 -1,3 -2,5 -1,1 -2,2 -4,2 -1,0 -2,0 -3,0 -1,0 -3,-1 -4,-3 0,0 0,0 -1,0 -1,1 -2,1 -3,1 0,0 0,1 0,1 0,0 0,-1 0,-1 -3,0 -5,-1 -7,-3 -2,1 -4,2 -6,2 -3,0 -6,-3 -7,-6 -2,-1 -4,-2 -5,-4 -2,-3 -1,-6 1,-9 1,-1 3,-2 4,-3 -1,-1 -1,-2 -1,-3 -1,-4 1,-8 5,-10 2,-1 5,-1 7,0 1,-2 2,-3 4,-4z"/>
  <path fill="#4F2926" d="M104 197c1,0 2,0 3,-1 0,11 0,21 0,32 -2,0 -5,0 -7,0 0,-2 1,-3 1,-5 1,-8 2,-16 3,-24 0,0 0,-1 0,-1z"/>
  <path fill="#65982F" d="M369 227c2,0 3,-1 5,-1 2,0 4,0 5,0 1,0 1,0 2,1 1,1 2,3 4,3 1,0 1,1 2,1 1,1 1,2 1,2 0,1 0,2 0,3 0,2 0,4 0,5 -12,0 -24,0 -36,0 -6,0 -12,0 -19,0 -7,0 -14,0 -21,0 0,-4 0,-8 0,-11 1,0 2,0 3,0 2,0 3,0 4,1 1,0 3,-1 4,-1 2,-1 3,-2 5,-2 1,0 1,0 2,1 1,0 2,0 3,0 2,1 5,1 8,1 1,0 2,-1 3,0 2,0 4,0 6,1 1,0 2,0 3,0 1,-1 2,-3 3,-3 3,0 6,0 10,0 1,0 2,1 3,0z"/>
  <path fill="#A27444" d="M311 234c0,-1 0,-3 0,-4l0 0c0,4 0,8 0,11 0,0 -1,1 -1,1 -7,0 -14,0 -21,0 -3,0 -5,0 -8,0 0,0 0,-1 0,-1 0,0 1,1 1,1 7,0 14,0 20,0 2,0 5,0 7,0 0,-2 0,-5 0,-7z"/>
  <path fill="#F7ACA6" d="M283 230c10,0 19,0 29,0 0,4 0,8 0,12 -10,0 -19,0 -29,0l0 -12z"/>
  <rect fill="#D05F53" stroke="#BB5158" stroke-width="1.00039" x="298" y="104" width="5" height="126"/>
  <rect fill="#D05F53" stroke="#BB5158" stroke-width="1.00039" x="303" y="106" width="4" height="124"/>
  <rect fill="#D05F53" stroke="#BB5158" stroke-width="1.00039" x="190" y="104" width="5" height="126"/>
  <rect fill="#D05F53" stroke="#BB5158" stroke-width="1.00039" x="187" y="106" width="4" height="124"/>
  <path fill="#71292D" fill-rule="nonzero" d="M226 89l2 0c0,1 0,1 1,1 0,0 1,0 1,0 1,0 1,0 1,0 0,0 0,-1 0,-1 0,0 0,0 0,-1 0,0 0,0 -1,0 0,0 -1,0 -1,0 -1,0 -2,-1 -2,-1 -1,0 -1,-1 -1,-2 0,0 0,-1 0,-1 0,0 1,-1 1,-1 0,0 1,0 2,0 1,0 2,0 2,1 1,0 1,1 1,2l-2 0c0,0 0,-1 0,-1 0,0 -1,0 -1,0 0,0 -1,0 -1,0 0,0 0,0 0,1 0,0 0,0 0,1 0,0 1,0 2,1 1,0 1,0 2,1 0,0 1,0 1,1 0,0 0,1 0,1 0,0 0,1 0,1 0,0 -1,1 -1,1 0,0 -1,0 -2,0 -1,0 -2,0 -2,-1 -1,0 -1,-1 -1,-2z"/>
  <path id="1" fill="#71292D" fill-rule="nonzero" d="M240 87l-2 0c0,0 0,-1 0,-1 0,0 0,0 -1,0 0,0 -1,0 -1,0 0,0 0,1 0,1 0,1 0,1 0,2 0,0 1,0 1,0 0,0 1,0 1,0 0,0 0,0 0,-1l2 0c0,1 0,1 -1,2 0,0 -1,1 -2,1 -1,0 -2,0 -2,-1 -1,-1 -1,-1 -1,-2 0,-1 0,-2 1,-2 1,-1 1,-1 2,-1 1,0 1,0 2,0 0,0 1,1 1,1z"/>
  <path id="12" fill="#71292D" fill-rule="nonzero" d="M243 83l0 3c1,-1 1,-1 2,-1 0,0 1,0 1,0 0,0 1,0 1,1 0,0 0,0 0,1 0,0 0,1 0,1l0 4 -2 0 0 -3c0,-1 0,-1 0,-1 0,0 0,0 0,0 0,0 0,0 -1,0 0,0 -1,0 -1,0 0,0 0,0 0,1 0,0 0,1 0,1l0 3 -2 0 0 -8 2 0z"/>
  <path id="123" fill="#71292D" fill-rule="nonzero" d="M248 89c0,-1 0,-1 0,-2 0,-1 1,-1 1,-1 0,0 1,0 2,0 1,0 2,0 2,1 1,1 1,1 1,2 0,1 0,2 -1,2 -1,1 -1,1 -2,1 -1,0 -1,0 -2,0 -1,0 -1,-1 -1,-1 0,0 0,-1 0,-2zm2 0c0,1 0,1 0,1 0,0 1,0 1,0 0,0 1,0 1,0 0,0 0,-1 0,-1 0,-1 0,-1 0,-1 0,0 -1,0 -1,0 0,0 -1,0 -1,0 0,0 0,1 0,1z"/>
  <path id="1234" fill="#71292D" fill-rule="nonzero" d="M255 89c0,-1 0,-1 0,-2 0,-1 1,-1 1,-1 0,0 1,0 2,0 1,0 2,0 2,1 1,1 1,1 1,2 0,1 0,2 -1,2 -1,1 -1,1 -2,1 -1,0 -1,0 -2,0 -1,0 -1,-1 -1,-1 0,0 0,-1 0,-2zm2 0c0,1 0,1 0,1 0,0 1,0 1,0 0,0 1,0 1,0 0,0 0,-1 0,-1 0,-1 0,-1 0,-1 0,0 -1,0 -1,0 0,0 -1,0 -1,0 0,0 0,1 0,1z"/>
  <polygon id="12345" fill="#71292D" fill-rule="nonzero" points="263,92 263,83 265,83 265,92 "/>
  <rect fill="#CECDCB" stroke="gray" stroke-width="0.9" x="220" y="232" width="62" height="9"/>
  <rect fill="#CECDCB" stroke="gray" stroke-width="0.9" x="220" y="234" width="62" height="7"/>
  <rect fill="#CECDCB" stroke="gray" stroke-width="0.9" x="220" y="237" width="62" height="4"/>
  <rect fill="#CECDCB" stroke="gray" stroke-width="0.9" x="220" y="239" width="62" height="2"/>
 </g>
 <g id="People">
  <metadata id="CorelCorpID_2Corel-Layer"/>
  <path fill="#030102" d="M234 211c2,-1 3,0 4,1 1,1 0,3 0,4l0 0c0,0 0,0 0,-1 0,-1 0,-1 0,-2 0,-1 -1,-1 -2,-2 -2,1 -2,2 -2,4l0 0c-2,-1 -1,-5 1,-5z"/>
  <path fill="#FECF9B" d="M235 212c1,0 2,1 2,2 0,1 0,1 0,2 0,0 0,0 0,1 0,0 -1,0 -1,1 0,0 0,1 0,1 -1,0 -1,0 -2,0 0,0 0,-1 0,-1 0,0 -1,-1 -1,-1 0,-2 0,-3 2,-4z"/>
  <path fill="#020101" d="M270 219c1,-1 2,-2 3,-2 3,-1 6,1 6,4 0,0 0,1 0,1 0,1 0,2 -1,3 0,0 0,0 0,0 0,0 0,-1 0,-1 0,-1 1,-2 0,-3 -1,-1 -2,-2 -3,-2 -1,0 -2,1 -2,2 -1,1 -1,3 0,5 -1,0 -1,-1 -1,-1 -1,-1 -1,-4 0,-5z"/>
  <path fill="#C92929" d="M231 219c1,0 2,-1 3,-1 1,0 1,0 2,0 1,0 2,0 3,1 0,0 0,1 0,1 0,1 0,1 0,2 0,0 0,0 0,0 0,0 -1,-1 -1,-1 0,1 0,2 0,3 -1,0 -2,0 -4,0 -1,-1 0,-2 -1,-3 0,0 -1,1 -2,1 0,-1 0,-1 0,-2 0,0 0,0 0,-1z"/>
  <path fill="#C92929" d="M270 229c1,0 2,0 2,0 1,0 2,0 3,0 1,0 2,0 3,1 0,0 1,0 1,0 0,0 0,1 0,1 0,1 0,2 0,2 0,0 0,1 0,1 0,0 -1,-1 -1,-1 0,0 0,0 0,-1 0,0 0,0 0,-1 0,0 0,0 0,1 0,0 0,0 0,0 0,0 0,1 0,2 0,0 0,0 0,1 0,0 0,1 0,1l0 0c-2,1 -4,0 -7,0l0 0 0 0c0,0 0,-1 0,-1 0,0 0,0 0,-1 0,0 0,-1 0,-1 0,0 0,0 0,0 0,0 0,-1 0,-1 -1,0 -1,0 -2,1 -1,0 -1,0 -2,0l0 0c0,-1 0,-2 0,-3 1,0 2,-1 3,-1z"/>
  <path fill="#FFCF99" d="M272 221c0,-1 1,-1 2,-2 1,1 3,1 3,2 0,1 0,2 0,3 0,0 0,1 0,1 -1,0 -1,1 -2,1 0,1 0,1 0,2 -1,0 -2,0 -3,0 0,-1 0,-1 0,-2 0,0 -1,-1 -1,-1 0,-1 0,-3 0,-5z"/>
  <path fill="#FDCF9A" d="M239 221c0,-1 0,-1 0,-2 1,1 2,3 3,5 0,1 -1,2 -2,1 0,-1 0,-1 0,-2 0,0 -1,-1 -1,-1z"/>
  <path fill="#FDCF9B" d="M231 220c0,1 0,1 0,2 0,0 -1,1 -1,1 0,1 0,2 0,2 -1,1 -2,0 -2,-1 0,-2 2,-3 2,-4z"/>
  <path fill="#C95C51" d="M279 223c0,2 0,4 0,6 -1,0 -2,-1 -3,-1 0,-1 0,-1 0,-2 1,0 1,-1 2,-1 0,0 0,0 0,0 1,-1 1,-2 1,-3z"/>
  <path fill="#C95C51" d="M270 229c0,-1 0,-3 0,-4 0,0 1,1 1,1 0,0 1,0 1,1 0,1 0,1 0,2 -1,0 -2,0 -2,0z"/>
  <path fill="#624A79" d="M231 226c0,-1 1,-2 2,-3 0,0 1,0 1,0 1,0 2,0 4,0 1,1 2,2 2,3 -1,0 -1,1 -2,1 -1,0 -1,0 -2,0 0,0 -1,0 -1,0 0,0 -1,0 -1,0 2,0 4,0 5,-1 0,-1 -1,-2 -1,-2 0,0 -1,0 -1,0 -1,0 -2,0 -3,0 -1,1 -1,2 -2,3 1,0 1,1 2,1l0 0c-1,0 -2,-1 -2,-1z"/>
  <path fill="#2858BA" d="M231 226c1,-1 1,-2 2,-3 1,0 2,0 3,0 0,0 1,0 1,0 1,1 1,2 1,2 -2,1 -3,1 -5,1 0,0 0,0 -1,0 -1,0 -1,-1 -2,-1z"/>
  <path fill="#2858BA" d="M271 236c2,0 4,1 7,0 0,0 0,0 0,0 0,0 1,1 1,1 0,0 0,0 0,1 0,0 0,1 1,1 0,0 0,1 0,1 -3,2 -8,2 -11,0 0,0 0,-1 0,-1 0,0 0,0 1,-1 0,0 0,0 0,-1 0,0 1,-1 1,-1 0,0 0,0 0,0z"/>
  <path fill="#FECE9A" d="M262 226c1,-1 2,0 2,0 1,1 2,2 3,3 0,1 0,2 0,3 -1,-1 -2,-2 -3,-3 -1,0 -2,0 -3,0 -1,-1 -1,-2 0,-2z"/>
  <path fill="#FFCE9D" d="M233 227l0 0c0,0 0,0 1,0 0,0 1,0 1,0 0,1 0,2 0,3 -1,0 -1,0 -2,0l0 0c0,-1 0,-3 0,-4z"/>
  <path fill="#FECE9C" d="M236 228c1,0 1,0 2,0 0,1 0,3 0,4 0,0 -1,0 -1,0 0,0 0,0 -1,0 0,-1 0,-2 0,-3z"/>
  <path fill="#8E3536" d="M235 228c0,0 1,0 1,0 0,1 0,2 0,3 0,0 0,0 1,0 0,0 0,0 -1,0 0,0 0,1 0,1 0,0 0,0 -1,0 0,0 0,-1 0,-1 0,-1 0,-2 0,-3z"/>
  <path fill="#FECF9A" d="M280 233c0,-1 0,-2 0,-2 1,1 1,2 2,2 0,0 0,0 0,1 1,1 2,3 2,4 0,1 -1,1 -1,1 0,0 0,0 0,0 0,0 0,0 -1,0 0,0 0,-1 0,-1 0,0 0,0 0,-1 0,0 0,-1 0,-1l0 0c0,0 0,0 0,0 0,-1 -1,-1 -1,-1z"/>
  <path fill="#040200" d="M236 231c0,0 1,0 1,0l0 0c0,0 0,1 -1,1 -1,0 -1,-1 -1,-1 0,0 0,0 1,0z"/>
  <path fill="#C85854" d="M270 232c0,-1 1,-1 2,-1 0,0 0,1 0,1 -1,0 -1,0 -2,0z"/>
  <path fill="#CC4745" d="M278 232c0,0 0,-1 0,-1 0,0 0,0 0,1 0,0 0,0 -1,0z"/>
  <path fill="#6D1B1A" d="M278 232c0,0 0,0 1,0 0,0 0,0 0,1 0,0 -1,0 -1,0 0,0 0,0 0,0z"/>
  <path fill="#D5CACC" d="M278 233c0,0 1,0 1,0 0,0 1,1 1,1 0,0 0,-1 0,-1 1,0 1,1 1,1 -1,0 -2,0 -3,0 0,-1 0,-1 0,-2z"/>
  <path fill="#190B08" d="M278 234c1,0 2,0 3,0 0,0 0,0 0,0l0 0c-1,0 -2,0 -4,0 0,0 0,0 0,-1z"/>
  <path fill="#CFCDCD" d="M278 235c1,0 2,0 4,0 0,0 0,1 0,1 -1,0 -2,0 -3,0 0,0 0,-1 0,-1z"/>
  <path fill="#151A12" d="M278 236c1,0 2,0 3,0 0,0 0,0 0,1 -1,0 -2,0 -3,0 0,0 0,0 0,0l0 0z"/>
  <path fill="#D0CDCD" d="M278 237c1,0 2,0 3,0 0,0 0,1 0,1 -1,0 -1,0 -2,0 0,0 -1,-1 -1,-1z"/>
  <path fill="#111408" d="M280 238c1,0 1,0 2,0 0,0 0,0 1,0l0 0c-1,0 -1,0 -2,0 0,0 0,0 0,-1z"/>
  <path fill="#D3CDCE" d="M280 239c1,0 1,0 2,0 0,0 0,1 0,1 0,0 -1,0 -1,0 0,0 0,-1 -1,-1z"/>
  <path fill="#3D648D" d="M268 240c0,0 0,0 1,-1 0,0 0,1 0,1 3,2 8,2 11,0 0,0 0,-1 0,-1 0,0 0,0 0,1 -1,1 -2,1 -3,2 -2,1 -4,1 -6,0 -1,0 -2,-1 -3,-2 0,0 0,0 0,-1z"/>
  <path fill="#1D3508" d="M281 240c0,0 1,0 1,0 0,0 0,0 0,1 0,0 -1,0 -1,0 0,0 0,0 0,-1z"/>
  <path fill="#FED099" d="M271 242c0,0 0,0 0,0 2,1 4,1 6,0 0,2 0,4 0,6 -1,-1 -2,-1 -3,0 0,-2 0,-4 0,-5 -1,0 -1,0 -2,0 0,2 0,4 0,5 -1,0 -2,0 -2,0 0,-2 0,-4 0,-6z"/>
  <path fill="#030003" d="M271 248c1,-1 2,-1 2,0 0,0 1,1 0,1 -1,1 -3,0 -3,-1z"/>
  <path fill="#020102" d="M275 248c1,0 2,0 3,0 0,0 0,1 0,1 -1,1 -2,1 -3,0 0,0 0,-1 0,-1z"/>
 </g>
 <g id="Bus">
  <metadata id="CorelCorpID_3Corel-Layer"/>
  <path fill="#FFED05" d="M57 261c1,-1 2,-1 4,-2 7,0 13,0 20,0 2,0 3,0 5,0l135 1c-4,0 2,29 -2,30 -3,1 -156,0 -157,0 -1,0 -3,0 -4,-1 -1,-1 -2,-3 -2,-4 0,-6 0,-12 0,-17 0,-1 0,-3 0,-4 0,-1 1,-2 2,-3z"/>
  <path fill="#FFCB05" d="M91 228c3,0 6,0 9,0 1,0 2,0 2,0 5,0 10,0 15,0 4,0 8,0 12,0 2,0 4,0 6,0l0 0c9,0 19,0 28,0 2,0 4,0 6,0 4,0 8,0 12,0 12,0 24,0 35,0 2,0 3,0 5,0 1,1 2,2 2,3 0,0 0,0 0,-1 0,1 0,1 0,2 0,0 0,0 0,0 -1,3 0,5 0,8 0,2 0,4 0,7 0,3 0,7 0,10 0,1 0,1 0,2 0,1 1,2 1,3 0,7 0,13 0,20 0,2 0,3 0,5 -1,2 -2,3 -4,3 -5,0 -10,0 -15,0 0,-3 -1,-5 -2,-8 -1,-1 -2,-3 -3,-4 -2,-2 -5,-4 -8,-5 -3,-1 -6,-1 -9,0 -6,2 -10,6 -12,12 0,1 -1,3 -1,4 -6,0 -12,0 -18,0 -12,0 -23,0 -35,0 -4,0 -7,0 -11,0 0,-4 -2,-8 -4,-11 -1,-2 -3,-3 -4,-4 -4,-2 -8,-3 -13,-2 -3,1 -7,3 -9,5 -3,3 -5,7 -5,12 -3,0 -6,0 -9,0 0,-2 -1,-4 -1,-5 -1,-4 0,-9 2,-12 2,-4 6,-7 10,-8 4,-1 8,-2 12,-2 0,-1 -1,-2 -1,-3 -2,0 -3,0 -5,0 2,0 3,0 5,0 0,-3 0,-5 0,-8 0,-6 0,-12 0,-18 0,-4 1,-6 6,-6z"/>
  <circle fill="black" cx="90" cy="291" r="13"/>
  <circle fill="white" cx="90" cy="291" r="7"/>
  <circle fill="#E6DFE6" cx="90" cy="291" r="4"/>
  <path fill="white" d="M92 235c1,0 2,0 3,0 5,0 10,0 15,0 1,0 2,0 2,1 1,0 1,1 1,2 0,9 0,17 0,26 0,1 -1,2 -2,2 -6,0 -11,0 -17,0 -1,0 -2,-1 -2,-2 0,-8 0,-17 0,-25 0,-1 0,-2 1,-2z"/>
  <path fill="white" d="M117 235c1,0 1,0 2,0 5,0 10,0 16,0 1,0 3,1 3,2 0,6 0,12 0,19 0,1 -1,2 -2,2 -6,0 -11,0 -17,0 -1,0 -2,0 -2,-1 0,0 -1,-1 -1,-2 0,-6 0,-11 0,-17 0,-1 0,-1 0,-2 0,-1 1,-1 1,-1z"/>
  <path fill="white" d="M143 237c0,-1 1,-2 2,-2 5,0 11,0 16,0 1,0 2,0 2,1 1,1 1,1 1,2 0,6 0,12 0,19 0,1 -1,2 -2,2 -6,0 -11,0 -17,0 -1,0 -1,-1 -2,-1 0,-1 0,-3 0,-4 0,-5 0,-11 0,-16z"/>
  <path fill="white" d="M169 236c0,-1 1,-2 2,-2 4,0 8,0 12,0 2,0 4,0 6,0 1,1 1,2 1,3 0,6 0,12 0,18 0,1 -1,2 -2,2 -5,0 -10,0 -15,0 -1,0 -2,0 -4,0 -1,-1 -1,-1 -1,-2 0,-6 0,-12 0,-18z"/>
  <path fill="white" d="M195 236c0,-1 1,-2 2,-2 5,0 11,0 16,0 1,0 2,0 3,1 0,0 0,1 0,2 0,6 0,12 0,19 0,1 0,1 -1,2 -1,0 -1,0 -2,0 -6,0 -11,0 -17,0 -1,0 -2,-1 -2,-2 0,-6 0,-13 0,-19z"/>
  <path fill="#000100" d="M117 263c0,-1 0,-2 1,-2 34,0 67,0 101,0 1,0 1,0 2,0 0,1 0,1 0,2 -1,1 -2,0 -3,0 -33,0 -66,0 -99,0 -1,0 -1,0 -2,-1z"/>
  <path fill="#010101" d="M92 272c0,-1 0,-2 1,-2 4,0 9,0 13,0 32,0 64,0 96,0 6,0 12,0 18,0 0,0 0,0 1,0 0,0 0,1 0,1 0,1 -1,1 -2,1 -42,0 -84,0 -126,0 -1,0 -1,0 -2,-1z"/>
  <path fill="#FFB806" d="M110 278c0,-1 1,-2 2,-2 19,0 37,0 56,0 1,0 2,0 2,1 0,2 0,3 0,5 0,1 -1,2 -2,2 -19,0 -37,0 -56,0 -1,0 -2,-1 -2,-2 0,-1 0,-3 0,-4z"/>
  <circle fill="black" cx="189" cy="291" r="13"/>
  <circle fill="white" cx="189" cy="291" r="7"/>
  <circle fill="#E6DFE6" cx="189" cy="291" r="4"/>
 </g>
</svg>
