<?xml version="1.0" encoding="UTF-8"?>
<!DOCTYPE svg PUBLIC "-//W3C//DTD SVG 1.1//EN" "http://www.w3.org/Graphics/SVG/1.1/DTD/svg11.dtd">
<!-- Creator: CorelDRAW X5 -->
<svg xmlns="http://www.w3.org/2000/svg" xml:space="preserve" width="480px" height="360px" shape-rendering="geometricPrecision" text-rendering="geometricPrecision" image-rendering="optimizeQuality" fill-rule="evenodd" clip-rule="evenodd"
viewBox="0 0 480 360"
 xmlns:xlink="http://www.w3.org/1999/xlink"
 xmlns:dc="http://purl.org/dc/elements/1.1/"
 xmlns:cc="http://creativecommons.org/ns#"
 xmlns:rdf="http://www.w3.org/1999/02/22-rdf-syntax-ns#"
 xmlns:svg="http://www.w3.org/2000/svg"
 version="1.2">
 <g id="Layer_x0020_1">
  <metadata id="CorelCorpID_0Corel-Layer"/>
  <flowRoot transform="translate(-163.87573,-231.08861)" id="flowRoot3189" xml:space="preserve" style="font-style:normal;font-variant:normal;font-weight:normal;font-stretch:normal;font-size:22px;line-height:125%;font-family:'Arial Black';-inkscape-font-specification:'Arial Black,';text-align:start;letter-spacing:0px;word-spacing:0px;writing-mode:lr-tb;text-anchor:start;fill:#000000;fill-opacity:1;stroke:none">
   <flowRegion id="flowRegion3191">
    <rect width="8.2570524" height="165.14104" x="835.61365" y="1025.0096" id="rect3193" style="font-style:normal;font-variant:normal;font-weight:normal;font-stretch:normal;font-size:22px;line-height:125%;font-family:'Arial Black';-inkscape-font-specification:'Arial Black,';text-align:start;writing-mode:lr-tb;text-anchor:start"/>
   </flowRegion>
   <flowPara id="flowPara3197"/>
  </flowRoot>
  <g id="g4642">
   <path id="path4603" fill="#82AF16" d="M157 195c-8,0 -19,-6 -26,-15 -1,-2 -4,-8 -2,-7 16,8 17,4 23,7 4,2 8,16 5,16l0 0z"/>
   <path id="path4630" fill="#729913" d="M128 173c0,2 1,5 2,7 7,10 17,15 26,15 2,0 2,-5 0,-9 0,3 0,5 -1,5 -8,0 -19,-6 -26,-15 0,0 -1,-1 -1,-2l0 0z"/>
   <path id="path4635" fill="#9AD01A" d="M129 172c0,0 0,0 0,1 0,0 0,0 1,0 15,10 17,7 23,10 2,1 5,7 5,12 3,-1 -1,-14 -5,-16 -6,-3 -7,1 -23,-7 0,0 0,0 0,0l0 0z"/>
   <path id="path4640" fill="none" d="M157 195c-8,0 -19,-6 -26,-15 -1,-2 -4,-8 -2,-7 16,8 17,4 23,7 4,2 8,16 5,16l0 0z"/>
  </g>
  <path id="path4340" fill="#719913" stroke="#6E9615" stroke-width="1.00039" d="M278 182c19,3 26,27 31,44 3,12 -40,22 -39,10 1,-44 -11,-31 -4,-45 2,-4 8,-10 13,-9z"/>
  <path id="path4342" fill="#9AD01A" d="M275 183c0,0 -1,0 -1,0 -1,0 -2,1 -4,2 -2,2 -4,4 -5,6 -2,3 -2,5 -2,7 0,1 1,2 2,5 2,4 5,12 5,34 0,1 0,2 2,3 1,1 3,1 4,2 4,1 9,0 14,-1 0,0 0,0 1,0 -4,1 -8,1 -11,1 -2,0 -3,-1 -4,-2 -1,-1 -2,-2 -2,-3 0,-22 -2,-30 -5,-34 -1,-2 -2,-3 -2,-5 0,-1 0,-3 2,-7 1,-2 3,-4 5,-6 1,-1 2,-1 3,-2 -1,0 -1,0 -2,0l0 0z"/>
  <path id="path4344" fill="#698C11" d="M275 183c0,0 -1,0 -1,0 9,2 15,8 20,16 5,8 8,19 10,28 0,1 0,3 -1,4 -1,1 -2,3 -4,4 -3,2 -8,4 -14,6 -2,1 -4,1 -6,1 3,0 7,0 11,-1 5,-1 10,-3 14,-6 2,-1 3,-2 4,-4 1,-1 1,-3 1,-4 -2,-9 -5,-19 -10,-28 -5,-8 -11,-15 -20,-16 -1,0 -2,0 -3,0l0 0z"/>
  <path id="path4346" fill="#9EAB26" d="M301 227c-2,0 -5,2 -6,4 -1,1 0,3 2,3 3,0 8,-4 8,-6 0,-1 -2,-2 -3,-1z"/>
  <path id="path4449" fill="none" stroke="#4B660E" stroke-width="1.00039" d="M278 182c19,3 26,27 31,45 3,12 -40,22 -39,10 1,-44 -11,-32 -4,-46 2,-5 8,-10 13,-9z"/>
  <path id="path4370" fill="#729913" stroke="#4B660E" stroke-width="1.00039" d="M196 177c17,10 16,37 15,58 -1,14 -45,10 -41,-3 15,-46 -1,-37 10,-50 4,-4 11,-7 15,-5l0 0z"/>
  <path id="path4372" fill="#9AD01A" stroke="black" stroke-width="1.00039" d="M193 177c0,0 -1,0 -1,0 -1,0 -3,0 -4,1 -3,1 -5,3 -7,5 -3,3 -4,5 -4,6 0,1 0,3 0,5 1,5 1,15 -7,38 0,1 0,3 0,4 1,1 2,2 4,3 3,2 8,3 14,4 0,0 0,0 1,0 -4,-1 -8,-2 -11,-3 -2,-1 -3,-2 -4,-3 -1,-1 -1,-2 0,-4 7,-23 7,-33 7,-38 0,-3 -1,-4 0,-5 0,-1 1,-3 4,-6 2,-2 4,-4 7,-5 1,0 2,-1 3,-1 -1,0 -1,0 -2,0l0 0z"/>
  <path id="path4374" fill="#698C11" d="M193 177c0,0 -1,0 -1,0 8,5 12,14 13,24 2,11 1,22 1,33 0,2 -1,3 -2,4 -1,1 -3,2 -5,3 -4,1 -9,2 -15,1 -2,0 -4,-1 -6,-1 3,1 7,2 11,2 5,0 11,0 15,-1 2,-1 4,-2 5,-3 1,-1 2,-2 2,-4 1,-10 1,-22 -1,-33 -2,-11 -6,-20 -14,-24 -1,0 -2,-1 -3,-1l0 0z"/>
  <path id="path4376" fill="#A0AD27" d="M204 234c-2,-1 -5,0 -6,1 -1,1 -2,3 -1,4 2,2 7,0 9,-2 1,-1 0,-2 -1,-3l0 0z"/>
  <path id="path3065" fill="#56730F" d="M177 185c-5,8 5,5 -8,46 -2,6 8,11 18,12 4,-20 8,-44 -7,-56 -1,-1 -2,-1 -4,-2l0 0z"/>
  <path id="path4526" fill="#56730F" d="M266 195c-1,0 -2,0 -3,1 0,6 7,5 7,41 0,6 10,7 20,5 -1,-18 -4,-39 -21,-46 -1,0 -2,0 -3,0l0 0z"/>
  <path id="path4463" fill="none" stroke="#4B660E" stroke-width="1.00039" d="M278 182c19,3 26,27 31,44 3,12 -40,22 -39,10 1,-44 -11,-31 -4,-45 2,-4 8,-10 13,-9z"/>
  <path id="path4298" fill="#8D9922" stroke="#484E11" stroke-width="3" d="M279 176l-122 12 1 8c12,8 25,17 31,19 30,11 68,5 92,-12 4,-3 9,-6 12,-10 12,-14 15,-29 9,-42l-22 25z"/>
  <path id="path4305" fill="#5E6617" d="M300 153c-1,2 -2,4 -3,6 -1,2 -3,2 -4,2 -2,5 -2,11 -4,16 0,2 -1,4 -2,6 1,3 2,2 5,3 2,0 3,0 5,-1 6,-11 7,-23 3,-33l0 0z"/>
  <path id="path4580" fill="#330203" d="M285 157c2,-5 5,-7 7,-7 4,1 7,9 6,19 -1,10 -6,18 -10,17 -4,-1 -7,-9 -6,-19 0,-3 1,-6 2,-9m1 -2l0 0 0 0z"/>
  <path id="path4519" fill="#B6C52C" d="M153 177c-4,16 9,32 34,39 30,9 67,4 91,-11 -9,5 -18,7 -29,9 -18,3 -38,2 -55,-3 -14,-4 -24,-11 -30,-19l-3 -1 -9 -15z"/>
  <path id="path4666" fill="#484F11" stroke="#A5B226" stroke-width="1.99961" stroke-linecap="round" stroke-linejoin="round" d="M198 212c0,0 -2,4 -1,6m1 -6l0 0 0 0z"/>
  <path id="path4668" fill="#484F11" stroke="#A5B226" stroke-width="1.99961" stroke-linecap="round" stroke-linejoin="round" d="M216 213c0,0 0,5 1,7m-1 -7l0 0 0 0z"/>
  <path id="path4670" fill="#484F11" stroke="#A5B226" stroke-width="1.99961" stroke-linecap="round" stroke-linejoin="round" d="M234 212c0,0 1,6 3,7m-3 -7l0 0 0 0z"/>
  <path id="path4672" fill="#484F11" stroke="#A5B226" stroke-width="1.99961" stroke-linecap="round" stroke-linejoin="round" d="M281 192c0,0 4,3 6,3m-6 -3l0 0 0 0z"/>
  <g id="g4358">
   <path id="path4360" fill="#82AF16" d="M178 187c15,12 10,39 6,59 -3,13 -46,2 -40,-10 21,-43 5,-37 18,-47 4,-3 12,-6 16,-2l0 0z"/>
   <path id="path4362" fill="#9AD01A" d="M175 186c0,0 -1,0 -1,0 -1,0 -3,0 -4,0 -3,1 -6,2 -8,4 -3,3 -4,4 -5,5 -1,1 0,3 0,5 0,5 -1,15 -12,36 -1,1 -1,3 0,4 1,1 2,3 3,4 3,2 8,5 13,6 0,0 0,0 1,0 -4,-1 -8,-3 -10,-5 -2,-1 -3,-3 -3,-4 -1,-1 -1,-3 0,-4 11,-22 12,-31 12,-36 0,-3 0,-4 0,-5 1,-1 2,-3 5,-5 2,-2 5,-3 8,-4 1,0 2,0 3,0 0,0 -1,0 -2,-1l0 0z"/>
   <path id="path4364" fill="#729913" d="M175 186c0,0 -1,0 -1,0 7,6 9,15 10,26 0,11 -2,22 -4,32 0,1 -1,3 -2,3 -1,1 -3,2 -5,2 -4,1 -10,0 -15,-1 -2,-1 -4,-1 -6,-2 3,2 6,3 10,4 5,1 10,2 15,1 2,0 4,-1 5,-2 1,-1 2,-2 2,-3 2,-10 4,-22 4,-32 0,-11 -3,-20 -10,-26 -1,-1 -2,-1 -2,-1l0 0z"/>
   <path id="path4366" fill="#B6C52C" d="M177 244c-2,-1 -6,-1 -8,0 -2,1 -4,3 -2,4 2,2 9,1 12,-1 1,-1 0,-3 -1,-3z"/>
  </g>
  <path id="path4296" fill="#82AF16" d="M266 196c18,6 20,30 21,47 1,12 -43,13 -41,2 10,-40 -5,-31 5,-43 3,-4 10,-7 15,-6l0 0z"/>
  <path id="path4327" fill="#9AD01A" d="M263 196c0,0 -1,0 -1,0 -1,0 -3,1 -4,1 -3,1 -5,3 -6,5 -2,3 -3,4 -3,6 0,1 0,2 1,5 1,4 2,12 -2,33 0,1 0,2 1,3 1,1 2,2 4,2 4,1 9,2 14,2 0,0 0,0 1,0 -4,0 -8,-1 -11,-2 -2,-1 -3,-1 -4,-2 -1,-1 -1,-2 -1,-3 5,-20 4,-28 2,-33 -1,-2 -1,-3 -1,-5 0,-1 1,-3 3,-6 1,-2 4,-4 6,-5 1,0 2,-1 3,-1 -1,0 -1,0 -2,0l0 0z"/>
  <path id="path4320" fill="#729913" d="M263 196c0,0 -1,0 -1,0 8,3 13,10 16,19 3,9 4,19 4,27 0,1 0,2 -1,3 -1,1 -3,2 -5,3 -4,2 -9,3 -14,3 -2,0 -4,0 -7,0 3,1 7,1 11,1 5,0 11,-1 14,-3 2,-1 4,-2 5,-3 1,-1 2,-2 1,-3 -1,-9 -1,-19 -4,-27 -3,-9 -8,-16 -16,-19 -1,0 -2,0 -3,0l0 0z"/>
  <path id="path4307" fill="#B6C52C" d="M280 242c-3,0 -7,1 -9,3 -1,1 -2,4 0,4 4,1 10,-2 12,-4 1,-1 -1,-2 -3,-2z"/>
  <path id="path3055" fill="#4F4C09" stroke="#4F4C09" stroke-width="3.1252" d="M222 99c-22,1 -44,11 -57,29l-4 6c-9,16 -12,26 -7,42 2,2 5,11 8,13 32,17 73,17 104,2l13 -33 10 -7 3 2c-7,-23 -11,-27 -25,-42 -11,-11 -29,-13 -44,-12z"/>
  <path id="path4412" fill="#5F8010" d="M165 189c-1,1 -2,1 -3,2 -2,2 -4,4 -5,5 5,5 12,9 20,11 4,1 7,2 11,2 -1,-4 -1,-8 -3,-11 -6,-1 -11,-3 -16,-6 -1,-1 -3,-2 -4,-3l0 0zm98 6c-4,0 -9,3 -12,6 -3,4 -4,5 -3,7 6,-1 12,-3 18,-5 3,-1 5,-3 8,-4 -2,-2 -5,-3 -7,-4 -1,0 -2,0 -3,0l0 0z"/>
  <path id="path4169" fill="#BABA00" stroke="#4F4C09" stroke-width="1.00039" stroke-linecap="round" stroke-linejoin="round" d="M223 98c-17,1 -33,6 -46,16 -2,2 -2,2 -1,4 6,5 15,11 19,12 5,1 24,-6 27,-10 2,-2 4,-12 5,-19 0,-1 0,-3 -3,-2l0 0z"/>
  <path id="path4171" fill="#ADBF8F" stroke="#4F4C09" stroke-width="1.00039" stroke-linecap="round" stroke-linejoin="round" d="M227 101c-2,7 -3,17 -2,20 2,4 18,16 23,16 5,1 25,-6 28,-9 1,-1 1,-2 2,-3 2,-4 -8,-11 -11,-14 -9,-9 -22,-11 -34,-12 -2,0 -5,-1 -6,3z"/>
  <path id="path4173" fill="#BA9500" stroke="#4F4C09" stroke-width="1.00039" stroke-linecap="round" stroke-linejoin="round" d="M173 118c-3,3 -5,6 -8,9l-4 7c-6,10 -9,18 -9,26 -1,3 1,4 1,5 3,3 5,5 7,5 5,1 25,-7 28,-11 3,-4 6,-23 4,-27 -1,-3 -9,-10 -16,-14 -1,0 -2,-1 -3,0l0 0z"/>
  <path id="path4175" fill="#A6A66C" stroke="#4F4C09" stroke-width="1.00039" stroke-linecap="round" stroke-linejoin="round" d="M221 122c-6,0 -24,7 -27,10 -3,4 -6,23 -4,27 2,4 18,16 23,17 5,1 25,-7 28,-10 3,-4 6,-23 4,-27 -2,-4 -18,-16 -23,-17 0,0 -1,0 -1,0z"/>
  <path id="path4177" fill="#A69400" stroke="#4F4C09" stroke-width="1.00039" stroke-linecap="round" stroke-linejoin="round" d="M274 130c-6,0 -22,7 -25,11 -3,4 -6,22 -4,26 2,4 17,16 22,16 1,0 2,0 3,0l10 -26 10 -8 3 2c-2,-6 -3,-10 -5,-14 -3,-6 -5,-9 -14,-8z"/>
  <path id="path4179" fill="#BFAC00" stroke="#4F4C09" stroke-width="1.00039" stroke-linecap="round" stroke-linejoin="round" d="M187 162c-6,0 -26,6 -29,10 -1,2 -2,4 -3,9 1,2 4,8 6,8 14,8 30,12 46,13 3,-6 4,-20 3,-24 -2,-4 -17,-16 -22,-16 0,0 -1,0 -1,0z"/>
  <path id="path4181" fill="#A7AA00" stroke="#4F4C09" stroke-width="1.00039" stroke-linecap="round" stroke-linejoin="round" d="M241 170c-6,0 -24,7 -27,10 -3,3 -5,16 -5,23 20,1 40,-3 58,-10 0,-3 0,-5 0,-7 -2,-4 -19,-15 -24,-16 0,0 -1,0 -1,0l0 0z"/>
  <g id="g4255">
   <path id="path4241" fill="#CBBB00" d="M224 99c0,0 -1,0 -1,0 0,0 0,0 0,0 0,0 0,0 0,0 -17,1 -33,6 -46,15l0 0c-1,1 -1,1 -1,2 0,0 0,1 0,1 0,0 1,1 1,1 0,0 0,0 1,0 13,-10 30,-15 46,-16 1,0 1,0 2,0 0,-1 0,-1 0,-2 0,0 0,0 0,0 0,0 0,0 0,0 0,0 0,-1 0,-1 0,0 -1,0 -1,0l0 0z"/>
   <path id="path4243" fill="#CBBB00" d="M230 99c0,0 -1,0 -1,0 0,0 -1,0 -1,1 0,0 -1,1 -1,2 0,0 0,0 0,0 -1,3 -2,8 -2,11 0,3 0,6 0,7 0,-4 1,-10 2,-15 1,-4 4,-3 6,-3 13,1 26,4 34,12 2,2 7,6 9,9 0,-1 0,-1 -1,-2 -1,-1 -2,-3 -3,-4 -2,-3 -6,-5 -7,-7 -9,-8 -21,-11 -34,-12 -1,0 -1,0 -2,0 0,0 -1,0 -1,0l0 0z"/>
   <path id="path4245" fill="#CBBB00" d="M174 118c0,0 -1,0 -1,0 -3,3 -5,6 -8,9l0 0 -4 7c-6,10 -9,17 -9,25 0,0 0,0 0,0 0,2 0,3 0,3 0,0 0,0 0,0 1,-8 4,-16 9,-25l4 -7c2,-3 5,-6 8,-9 1,-1 2,-1 3,0 5,3 12,9 15,12 0,-1 0,-2 0,-2 -1,-1 -3,-4 -6,-6 -3,-3 -6,-5 -10,-7 0,0 -1,0 -1,0 0,0 0,0 0,0l0 0z"/>
   <path id="path4247" fill="#CBBB00" d="M221 123c-3,0 -9,2 -14,4 -3,1 -5,2 -7,3 -2,1 -4,2 -4,3 -1,1 -1,3 -2,5 -1,2 -1,5 -2,8 0,3 -1,6 -1,8 0,2 0,4 0,5 0,-7 2,-20 5,-22 3,-3 20,-10 27,-10 0,0 1,0 1,0 4,1 18,10 22,15 0,-1 0,-2 0,-2 0,-1 -2,-2 -4,-4 -2,-2 -4,-4 -7,-5 -2,-2 -5,-3 -7,-5 -2,-1 -4,-2 -5,-2 0,0 -1,0 -1,0l0 0z"/>
   <path id="path4249" fill="#CBBB00" d="M276 131c0,0 -1,0 -2,0 0,0 0,0 0,0 -3,0 -8,2 -14,4 -3,1 -5,3 -7,4 -2,1 -4,2 -4,3 -1,1 -1,3 -2,5 -1,2 -1,5 -2,8 0,3 -1,6 -1,8 0,2 0,3 0,4 0,-7 2,-19 5,-21 3,-3 19,-10 25,-11 8,-1 11,2 13,7 0,-1 -1,-2 -1,-3 -1,-3 -3,-5 -5,-6 -1,-1 -3,-2 -6,-2 0,0 -1,0 -1,0l0 0z"/>
   <path id="path4251" fill="#CBBB00" d="M187 163c-3,0 -9,2 -15,4 -3,1 -6,2 -8,3 -2,1 -4,2 -5,3 -1,1 -1,2 -1,3 0,1 -1,3 -1,6 0,0 0,1 1,1 1,-3 1,-5 2,-6 3,-3 23,-9 29,-10 0,0 1,0 1,0 4,1 17,10 21,15 0,-1 0,-2 0,-2 0,-1 -2,-2 -3,-4 -2,-2 -4,-3 -6,-5 -2,-2 -5,-3 -7,-5 -2,-1 -4,-2 -5,-2 0,0 -1,0 -1,0l0 0z"/>
   <path id="path4253" fill="#CBBB00" d="M241 170c-3,0 -9,2 -15,4 -3,1 -5,2 -8,3 -2,1 -4,2 -4,3 -1,1 -1,2 -2,4 -1,2 -1,4 -2,6 -1,4 -1,9 -1,12 0,0 0,0 0,0 1,-7 3,-16 5,-18 3,-3 21,-10 27,-10 0,0 1,0 1,0 5,1 18,10 23,14 0,-1 0,-2 0,-2 0,-1 -2,-2 -4,-4 -2,-2 -4,-3 -7,-5 -3,-2 -5,-3 -7,-4 -2,-1 -4,-2 -5,-2 0,0 -1,0 -1,0l0 0z"/>
  </g>
  <g id="g4264">
   <path id="path4096" fill="#998A04" d="M204 172c2,2 2,2 2,2 2,6 2,16 -1,20 -3,3 -15,-1 -20,-2 -10,-3 -21,-7 -28,-13 0,1 0,1 0,2 1,2 4,8 5,8 14,8 30,12 45,13 2,-6 4,-20 3,-23 -1,-1 0,-2 -2,-5l-3 -2z"/>
   <path id="path4106" fill="#998A04" d="M226 100c-1,6 -3,12 -4,14 -3,3 -22,10 -27,10 -3,0 -12,-6 -17,-10 0,0 0,0 -1,0 -2,2 -2,2 -1,3 6,5 15,11 19,11 5,1 24,-6 27,-10 2,-2 4,-12 5,-18 0,0 0,-1 0,-1l0 0z"/>
   <path id="path4104" fill="#998A04" d="M225 112c-1,4 -1,8 0,10 2,4 18,15 23,16 5,1 25,-6 28,-9 1,-1 1,-2 2,-3 0,-1 0,-2 0,-3 0,0 -1,1 -1,1 -3,3 -23,10 -28,9 -5,-1 -21,-12 -23,-16 0,-1 -1,-3 -1,-5z"/>
   <path id="path4102" fill="#998A04" d="M192 137c-1,7 -2,14 -4,16 -3,4 -23,11 -28,11 -2,0 -4,-3 -7,-5 0,0 -1,-1 -1,-2 0,1 0,2 0,3 -1,3 1,4 1,5 3,3 5,5 7,5 5,1 25,-7 28,-11 2,-3 4,-14 5,-21l0 0z"/>
   <path id="path4100" fill="#998A04" d="M246 145c-1,7 -3,14 -4,16 -3,4 -23,11 -28,10 -5,-1 -21,-12 -23,-17 0,-1 -1,-3 -1,-5 -1,5 -1,9 0,11 2,4 18,16 23,17 5,1 24,-6 28,-10 2,-3 5,-14 5,-22l0 0z"/>
   <path id="path3999" fill="#998A04" d="M249 173c0,0 0,1 1,1 2,3 7,6 7,10 -1,2 -4,3 -7,4 -13,4 -28,7 -41,7 0,2 0,4 0,6 20,1 40,-2 57,-9 0,-3 0,-5 0,-7 -1,-3 -9,-9 -16,-13z"/>
  </g>
  <path id="path4098" fill="#998A04" d="M281 131c4,5 7,15 6,21l3 -2 3 2c-2,-5 -3,-10 -5,-14 -2,-3 -2,-4 -3,-5 -1,-1 -1,-2 -4,-2l0 0zm3 19c-1,0 -2,2 -6,5 -8,9 -9,19 -18,25 3,2 5,3 6,3 1,0 2,0 3,0l10 -25 5 -3c-2,0 3,-4 1,-4l0 0z"/>
  <path id="path4291" fill="#8F8F09" stroke="#4F4C09" stroke-width="1.00039" d="M296 146c-9,1 -16,8 -18,16 -3,8 -8,19 -15,26 -6,5 -19,7 -27,8 -11,2 -22,1 -33,1 -13,-1 -26,-2 -37,-10 -8,-5 -12,-14 -14,-22 -16,2 -3,32 22,38 14,4 29,5 44,5 14,0 32,-2 45,-7 11,-4 22,-16 25,-27 2,-6 1,-13 7,-18 4,-2 13,1 12,-6 -1,-4 -6,-5 -10,-4l0 0z"/>
  <path id="path3066" fill="#BEAF00" d="M296 146c-9,0 -16,8 -18,16 -3,8 -8,19 -15,26 -6,5 -19,7 -27,8 -11,2 -22,1 -33,1 -12,-1 -26,-2 -36,-9 1,0 1,1 2,1 11,7 24,9 37,10 11,0 22,0 33,-1 8,-2 21,-3 27,-8 6,-7 12,-18 15,-26 1,-8 9,-15 18,-16 2,0 4,0 6,1 -2,-2 -6,-3 -9,-3l0 0zm-143 19c-13,2 -6,22 10,33 -13,-10 -19,-27 -9,-30 0,-1 0,-2 0,-2l0 0z"/>
  <path id="path4294" fill="none" stroke="#4F4C09" stroke-width="1.00039" d="M296 146c-9,0 -16,8 -18,16 -3,8 -8,19 -15,26 -6,5 -19,7 -27,8 -11,2 -22,1 -33,1 -13,-1 -26,-2 -37,-10 -8,-5 -12,-14 -14,-22 -16,2 -3,32 22,38 14,4 29,5 44,5 14,0 32,-2 45,-7 11,-4 22,-16 25,-27 2,-6 1,-13 7,-18 5,-2 13,1 12,-6 -1,-4 -6,-5 -10,-4l0 0z"/>
  <path id="path3906" fill="#82AF16" stroke="#4B660F" stroke-width="1.00039" d="M336 98c-9,0 -16,4 -21,9 -1,1 -2,3 -3,5 -3,8 -4,18 -6,26 -2,8 -6,14 -10,19 -1,2 -3,2 -4,2 -2,5 -2,11 -4,16 0,2 -1,4 -2,6 1,2 2,2 5,3 48,-4 95,-37 71,-74 -7,-8 -14,-12 -24,-13 -1,0 -2,0 -2,0z"/>
  <path id="path3917" fill="#4B660F" d="M294 159c-1,0 -2,0 -2,0 -3,5 -3,11 -4,16 0,2 -1,4 -2,6 1,1 1,1 2,2 2,-3 3,-6 3,-9 2,-5 1,-10 4,-15z"/>
  <path id="path3922" fill="#729913" d="M340 98c6,2 11,6 16,11 24,36 -22,69 -69,74 1,1 2,1 4,1 48,-4 95,-37 71,-74 -6,-7 -13,-12 -22,-13z"/>
  <path id="path3928" fill="#9AD01A" d="M336 99c-9,0 -15,4 -20,9 -1,2 -2,4 -3,5 -3,7 -4,18 -6,26 -3,9 -7,16 -10,19 14,-18 12,-27 20,-46 4,-6 10,-12 19,-14z"/>
  <g id="g4294">
   <path id="path4280" fill="none" stroke="#4B660F" stroke-width="1.00039" stroke-linecap="round" stroke-linejoin="round" d="M318 139c0,0 19,21 36,13 2,-1 3,-2 4,-4"/>
   <path id="path4282" fill="#4D0305" stroke="#4B660F" stroke-width="1.00039" stroke-linecap="round" stroke-linejoin="round" d="M355 151c-1,0 -11,11 -13,13 -4,2 -9,3 -13,-4 -3,-7 -3,-14 -9,-20 6,4 12,9 20,11 4,1 6,2 15,-1z"/>
   <path id="path4284" fill="#B10005" stroke="black" stroke-width="1.00039" d="M328 158c3,-1 9,0 12,7 -3,1 -5,2 -10,-3 0,0 -2,-2 -2,-4 0,0 0,0 0,0l0 0z"/>
   <path id="path4289" fill="none" stroke="#4B660F" stroke-width="1.00039" stroke-linecap="round" stroke-linejoin="round" d="M356 146c0,0 4,-1 5,5"/>
   <path id="path4292" fill="none" stroke="#4B660F" stroke-width="1.00039" stroke-linecap="round" stroke-linejoin="round" d="M325 140c0,0 -6,-4 -11,0"/>
   <path id="path4303" fill="none" stroke="#4B660F" stroke-width="1.00039" stroke-linecap="round" stroke-linejoin="round" d="M355 151c-1,0 -11,11 -13,13 -4,2 -9,3 -13,-4 -3,-7 -3,-14 -9,-20 6,4 12,9 20,11 4,1 6,2 15,-1z"/>
  </g>
  <path id="path1542" fill="black" fill-rule="nonzero" stroke="#000100" d="M357 110c0,-1 0,1 0,1 5,1 8,3 12,7 -4,-5 -6,-6 -12,-8l0 0z"/>
  <path id="path4357" fill="#4B660F" d="M338 135c0,-1 -1,-1 -1,-1 -1,0 -1,1 -1,1 0,0 0,0 0,0l3 0z"/>
  <path id="path4351" fill="black" fill-rule="nonzero" stroke="#000100" d="M325 106c0,-1 0,1 0,1 -5,2 -8,4 -13,10 3,-6 6,-8 13,-11z"/>
  <path id="path6428" fill="#4B660F" fill-rule="nonzero" stroke="#000100" d="M323 164c0,0 1,0 1,0 1,2 3,4 7,6 -4,-1 -5,-3 -7,-5z"/>
  <path id="path4276" fill="#82AF16" stroke="#4B660F" stroke-width="1.00039" stroke-linecap="round" stroke-linejoin="round" d="M359 140c0,0 -6,-12 -22,-9m22 9l0 0 0 0z"/>
  <path id="path4377" fill="#4B660F" d="M353 137c0,0 0,0 0,0 0,-1 0,-1 -1,-1 -1,0 -1,0 -1,1l2 0z"/>
  <ellipse fill="white" stroke="#4B660F" stroke-width="1.00039" cx="325" cy="124" rx="8" ry="10"/>
  <ellipse fill="white" stroke="#4B660F" stroke-width="1.00039" cx="360" cy="127" rx="8" ry="10"/>
  <ellipse fill="black" cx="325" cy="125" rx="3" ry="4"/>
  <ellipse fill="black" cx="361" cy="126" rx="3" ry="4"/>
 </g>
</svg>
